PathFileType	4	(X/Y/Z)	C:\Users\Basilio\Documents\Thesis Gigler\squatting_fais\c3dfiles\041\SLS_pre_front5\markers_experimental.trc
DataRate	CameraRate	NumFrames	NumMarkers	Units	OrigDataRate	OrigDataStartFrame	OrigNumFrames
200.000000	200.000000	4	62	mm	200.000000	483	1289
Frame#	Time	FHD			LBHD			RBHD			C7			T10			CLAV			LSHO			LUUPA			LMUPA			LDUPA			LLEP			LMEP			LRAD			LUL			LRFIN			RSHO			RUPA1			RMUPA			RDUPA			RLEP			RMEP			RRAD			RUL			RUFIN			LASI			RASI			USACR			LSACR			RSACR			LTHI1			LTHI2			LTHI3			LTHI4			LLFC			LMFC			LTIB1			LTIB2			LTIB3			LTIB4			LLMAL			LMMAL			LHEE			LMT1			LMT2			LMT5			RTHI			RTHI2			RTHI3			RTHI4			RLFC			RMFC			RTIB1			RTIB2			RTIB3			RTIB4			RLMAL			RMMAL			RHEE			RMT1			RMT2			RMT5			*61			
		X1	Y1	Z1	X2	Y2	Z2	X3	Y3	Z3	X4	Y4	Z4	X5	Y5	Z5	X6	Y6	Z6	X7	Y7	Z7	X8	Y8	Z8	X9	Y9	Z9	X10	Y10	Z10	X11	Y11	Z11	X12	Y12	Z12	X13	Y13	Z13	X14	Y14	Z14	X15	Y15	Z15	X16	Y16	Z16	X17	Y17	Z17	X18	Y18	Z18	X19	Y19	Z19	X20	Y20	Z20	X21	Y21	Z21	X22	Y22	Z22	X23	Y23	Z23	X24	Y24	Z24	X25	Y25	Z25	X26	Y26	Z26	X27	Y27	Z27	X28	Y28	Z28	X29	Y29	Z29	X30	Y30	Z30	X31	Y31	Z31	X32	Y32	Z32	X33	Y33	Z33	X34	Y34	Z34	X35	Y35	Z35	X36	Y36	Z36	X37	Y37	Z37	X38	Y38	Z38	X39	Y39	Z39	X40	Y40	Z40	X41	Y41	Z41	X42	Y42	Z42	X43	Y43	Z43	X44	Y44	Z44	X45	Y45	Z45	X46	Y46	Z46	X47	Y47	Z47	X48	Y48	Z48	X49	Y49	Z49	X50	Y50	Z50	X51	Y51	Z51	X52	Y52	Z52	X53	Y53	Z53	X54	Y54	Z54	X55	Y55	Z55	X56	Y56	Z56	X57	Y57	Z57	X58	Y58	Z58	X59	Y59	Z59	X60	Y60	Z60	X61	Y61	Z61	X62	Y62	Z62	

484	2.415	-220.1428985595704	1711.775024414063	-1086.468627929688	-391.6351013183595	1626.790161132813	-1156.469482421875	-368.0197143554688	1633.656494140625	-1005.081909179688	-422.7816467285157	1493.694580078125	-1089.26220703125	-488.9012451171876	1190.416870117188	-1068.1162109375	-266.6521911621094	1427.665161132813	-1096.992309570313	-354.7884521484376	1497.320434570313	-1234.144287109375	-293.5041198730469	1476.586181640625	-1390.587524414063	-246.8778076171876	1492.18701171875	-1388.8720703125	-252.2884521484376	1474.234008789063	-1446.767822265625	-217.5593414306641	1471.20654296875	-1479.38232421875	-170.3083038330078	1402.128051757813	-1458.244140625	40.82589721679688	1501.300903320313	-1585.22021484375	-3.630381345748902	1498.250366210938	-1644.301879882813	89.17474365234376	1546.585327148438	-1623.060180664063	-337.1760864257813	1516.360595703125	-970.7564086914065	-203.5649108886719	1511.104614257813	-839.6307373046877	-182.9919128417969	1538.348999023438	-876.504333496094	-137.5134735107422	1536.09912109375	-838.1414794921877	-92.9153289794922	1543.015991210938	-835.1380004882815	-66.75858306884767	1465.063110351563	-859.0752563476565	174.7742767333985	1565.3037109375	-883.4454345703127	167.2467346191407	1577.810546875	-809.4421386718752	253.0566711425782	1592.349731445313	-884.1963500976565	-334.2924194335938	987.5198364257815	-1165.0078125	-341.0965576171876	1002.462585449219	-941.3834228515627	-515.7571411132814	1066.859619140625	-1060.4716796875	-530.4333496093751	1039.348754882813	-1086.991821289063	-535.1055297851564	1041.572265625	-1032.268310546875	-380.0541992187501	771.9133300781252	-1218.850830078125	-316.5371093750001	716.3840942382814	-1210.770141601563	-274.4672241210938	737.9188232421876	-1202.8701171875	-319.7067260742188	657.4140625000001	-1193.985107421875	-239.0063781738282	507.2843017578126	-1162.674560546875	-233.3834228515626	503.759246826172	-1045.8955078125	-248.4992980957032	323.9200134277344	-1085.85546875	-305.6828918457032	288.1393127441407	-1144.791137695313	-270.2313537597657	276.5187377929688	-1117.097900390625	-293.9094238281251	208.1262512207032	-1075.677368164063	-376.2463378906251	130.6338653564453	-1107.438598632813	-340.4055480957032	138.0446166992188	-1024.358764648438	-447.4844055175782	117.3041152954102	-1062.1474609375	-240.9527740478516	61.84841537475587	-1039.459106445313	-235.0074615478516	56.29549407958986	-1085.276245117188	-284.6260986328126	43.89877700805665	-1136.771118164063	-303.2363891601563	768.3995361328127	-866.2874145507815	-237.8538818359376	761.8067016601564	-867.7451171875002	-217.3329010009766	787.3212890625002	-874.7145996093752	-197.8319091796876	688.2093505859376	-884.6225585937502	-104.4508514404297	604.2274780273439	-890.6499023437502	-77.68646240234376	609.0922851562501	-1008.642333984375	34.78369903564454	505.2686462402345	-900.5541992187502	25.73364067077637	392.7157287597657	-888.9343261718752	61.92811965942384	422.725067138672	-888.9691162109377	111.4191513061524	404.0707397460939	-915.6217041015627	154.9988708496094	276.6906127929688	-905.2378540039065	162.1136779785157	316.0561218261719	-983.8992919921877	145.6629180908203	208.0831604003907	-959.3699951171877	294.4207763671876	366.6372680664063	-960.5278930664065	292.3505249023438	369.8972473144532	-907.6231079101565	279.6496887207032	319.7512207031251	-864.7259521484377	-4216.863769531251	853.1215820312502	-3944.517578125001	
485	2.42	-220.2928466796876	1711.138305664063	-1086.552490234375	-391.5912475585939	1626.004516601563	-1156.5673828125	-368.1177368164063	1632.841064453125	-1005.175964355469	-422.8850402832032	1492.99609375	-1089.318237304688	-489.4302062988282	1189.856689453125	-1068.074096679688	-266.8036804199219	1426.809814453125	-1096.93798828125	-354.9115905761719	1496.6005859375	-1234.081665039063	-293.8752136230469	1476.394775390625	-1390.72216796875	-246.9909973144532	1491.721557617188	-1388.808959960938	-252.3204498291016	1473.871337890625	-1446.709350585938	-217.5429229736329	1470.909301757813	-1479.342163085938	-170.2503814697266	1401.913452148438	-1458.20703125	40.38409042358399	1501.37646484375	-1585.494384765625	-3.889865159988404	1498.192504882813	-1644.536010742188	88.83177947998048	1546.678955078125	-1623.431030273438	-337.1981506347657	1515.69775390625	-970.883483886719	-203.6078033447266	1510.692993164063	-839.9425048828127	-182.7428741455078	1537.901245117188	-877.2378540039065	-137.4341430664063	1535.662353515625	-838.7154541015627	-92.87533569335939	1542.78173828125	-835.6104125976565	-66.69355773925783	1464.421264648438	-859.2371215820315	174.8622741699219	1564.7578125	-884.4280395507815	167.5699615478516	1577.104125976563	-810.3725585937502	252.8221130371094	1591.671630859375	-885.119323730469	-335.1251831054688	987.0982055664065	-1164.996337890625	-341.6055603027344	1001.868225097656	-941.4975585937502	-516.3804931640626	1066.325317382813	-1060.395263671875	-531.0208129882814	1038.787963867188	-1086.842651367188	-535.5354614257814	1040.951049804688	-1032.11181640625	-380.4810791015626	771.4121093750002	-1218.903198242188	-316.7900085449219	716.0271606445314	-1210.809326171875	-274.7832641601563	737.6492309570314	-1202.92236328125	-319.7866210937501	657.0922241210939	-1194.185424804688	-238.7235412597657	507.0457458496095	-1162.794677734375	-233.0674743652344	503.5682678222657	-1046.037963867188	-248.2526245117188	323.6935119628907	-1085.986083984375	-305.6474609375001	287.9766845703126	-1144.766357421875	-270.2369995117188	276.3517150878907	-1117.170654296875	-293.8009948730469	208.0406646728516	-1075.671752929688	-376.2062988281251	130.5667266845703	-1107.426879882813	-340.3763732910157	137.98828125	-1024.376220703125	-447.4908142089845	117.2498245239258	-1062.148071289063	-240.9763793945313	61.88816833496095	-1039.475830078125	-234.8500061035157	56.38428878784181	-1085.260864257813	-284.6600341796876	43.93403625488282	-1136.7802734375	-303.7412109375001	767.8395385742189	-866.2628173828127	-238.4132080078126	761.2840576171876	-867.684997558594	-217.8110656738282	786.795104980469	-874.7855224609377	-198.337875366211	687.7822875976564	-884.5834960937502	-104.8654708862305	603.9562377929689	-890.6434326171877	-77.98513031005861	608.8260498046876	-1008.695007324219	34.38363265991212	505.2217407226564	-900.433532714844	25.60226440429688	392.6216430664064	-889.3184814453127	61.75126266479494	422.5225219726564	-889.1395263671877	111.3441543579102	403.9556274414064	-915.7448730468752	155.0307006835938	276.6048889160157	-905.3255004882815	162.0470123291016	315.9551391601563	-983.9995727539065	145.8056182861328	207.8848724365235	-959.541687011719	294.3534851074219	366.7905883789063	-960.5562744140627	292.1943664550782	369.9035034179688	-907.7269287109377	279.5578308105469	319.7380981445313	-864.7197265625002	-4217.027343750001	853.1572875976565	-3944.696044921876	
486	2.425	-220.3029022216797	1710.498291015625	-1086.600952148438	-391.5368957519532	1625.254028320313	-1156.669799804688	-368.2668457031251	1632.040649414063	-1005.067810058594	-422.8658142089845	1492.234375	-1089.3623046875	-489.959686279297	1189.315551757813	-1068.022216796875	-266.8700561523438	1425.82568359375	-1096.960205078125	-354.9370727539063	1495.839111328125	-1234.049194335938	-293.5577392578126	1475.764892578125	-1390.494750976563	-246.8281402587891	1491.327880859375	-1388.784790039063	-252.1596984863282	1473.325073242188	-1446.651489257813	-217.7441864013672	1470.32275390625	-1479.3828125	-170.1536407470703	1401.625854492188	-1458.182983398438	39.88538360595704	1501.422607421875	-1585.709106445313	-4.053285121917725	1498.05615234375	-1644.660034179688	88.49305725097658	1546.847900390625	-1623.8046875	-337.2496948242188	1515.04150390625	-971.1094360351565	-203.4925537109376	1510.270141601563	-840.369812011719	-182.7599029541016	1537.242919921875	-877.690368652344	-137.3648376464844	1535.187622070313	-839.2320556640627	-92.86766815185548	1542.335693359375	-836.0842895507815	-66.54893493652345	1463.912231445313	-859.5908203125002	175.065673828125	1563.856079101563	-885.4683837890627	167.982406616211	1576.593872070313	-811.495788574219	253.2009735107422	1590.767578125	-886.273620605469	-335.6900939941407	986.497741699219	-1164.963989257813	-342.4058837890626	1001.181701660156	-941.2907714843752	-516.7872314453126	1065.494873046875	-1060.04833984375	-531.7930297851564	1038.134521484375	-1086.723999023438	-535.8665161132814	1040.315307617188	-1031.827880859375	-380.8619995117188	770.8933715820315	-1218.90966796875	-317.0095825195313	715.7066040039064	-1210.863159179688	-275.1138610839844	737.4312744140626	-1203.055786132813	-319.9592285156251	656.7042236328126	-1194.179443359375	-238.9411926269532	506.9947204589845	-1162.97314453125	-232.6548767089844	503.3323364257814	-1046.219970703125	-248.1026763916016	323.5572509765626	-1086.057739257813	-305.5340576171876	287.8800354003907	-1144.779174804688	-270.1023559570313	276.0566406250001	-1117.158935546875	-293.7914123535157	207.9756774902344	-1075.663940429688	-376.2084960937501	130.4723815917969	-1107.416625976563	-340.3460998535157	137.9974060058594	-1024.36474609375	-447.5043334960939	117.2093048095703	-1062.135864257813	-241.0450592041016	61.86593627929689	-1039.422485351563	-234.8220520019532	56.47925949096681	-1085.290893554688	-284.6700134277344	43.94530868530274	-1136.7783203125	-304.3952941894532	767.2689208984376	-866.118591308594	-238.7582397460938	760.8731689453126	-867.745056152344	-218.539291381836	786.2744140625002	-874.6413574218752	-198.8672180175782	687.2471923828126	-884.638610839844	-105.1711578369141	603.5676269531251	-890.6687011718752	-78.34774017333986	608.4503784179689	-1008.617492675781	34.19903182983399	504.771453857422	-900.6001586914065	25.39208412170411	392.3524475097657	-889.4773559570315	61.60662078857423	422.2894592285157	-889.1965942382815	111.1567153930664	403.7702026367189	-915.7007446289065	155.1300354003907	276.4236450195313	-905.3606567382815	162.0717315673828	315.8076782226563	-984.1021118164065	145.8470153808594	207.7871246337891	-959.6448974609377	294.2774658203126	366.8201599121094	-960.556091308594	292.0940551757813	369.8923339843751	-907.7718505859377	279.5628051757813	319.7182617187501	-864.7910156250002	-4217.197265625001	853.1658325195315	-3944.593505859376	
487	2.43	-220.4804840087891	1709.553833007813	-1086.640991210938	-391.579315185547	1624.49072265625	-1156.792846679688	-368.2149047851563	1631.215698242188	-1005.181884765625	-422.9332580566407	1491.70751953125	-1089.460815429688	-490.4516601562501	1188.8447265625	-1067.9833984375	-266.7633972167969	1425.183227539063	-1097.1005859375	-354.7719726562501	1495.11865234375	-1234.033935546875	-293.6255493164063	1475.330932617188	-1390.544311523438	-246.8793945312501	1490.946044921875	-1388.768310546875	-253.0859832763672	1473.396240234375	-1446.825927734375	-217.6005401611329	1470.192993164063	-1479.3115234375	-170.0756530761719	1401.294677734375	-1458.12841796875	39.74363708496094	1501.533203125	-1585.891967773438	-4.239570140838624	1497.963256835938	-1644.79736328125	88.22418212890626	1547.034301757813	-1624.111206054688	-337.2269287109376	1514.50146484375	-971.3742675781252	-203.4064025878907	1509.904663085938	-840.724304199219	-182.8396453857422	1536.64990234375	-877.8713989257815	-137.3155212402344	1534.7109375	-839.5388793945315	-92.56399536132814	1541.81103515625	-836.6131591796877	-66.52100372314455	1463.347534179688	-859.939147949219	175.0774230957032	1563.027954101563	-886.2744140625002	167.9383850097657	1576.024536132813	-812.176208496094	253.4673614501954	1590.206909179688	-887.3787841796877	-336.6244812011719	986.2211914062502	-1164.996948242188	-342.8695373535157	1000.494140625	-941.307800292969	-517.5819091796876	1065.115356445313	-1060.002563476563	-532.3320922851564	1037.533935546875	-1086.581298828125	-536.7776489257814	1039.71630859375	-1031.796020507813	-381.2828369140626	770.3237304687502	-1218.9228515625	-317.3421325683594	715.4021606445314	-1210.971435546875	-275.3993225097657	737.1661376953126	-1203.194946289063	-320.0013427734376	656.3011474609376	-1194.224487304688	-238.8111267089844	506.8049316406251	-1163.08349609375	-232.5606231689454	503.2384033203126	-1046.264282226563	-248.0443267822266	323.4243164062501	-1086.02001953125	-305.5021057128907	287.6298217773438	-1144.719116210938	-270.0367431640626	275.9445190429688	-1117.097290039063	-293.7688903808594	207.8708038330079	-1075.664794921875	-376.3412475585938	130.406478881836	-1107.414672851563	-340.3444213867188	137.8813018798828	-1024.336303710938	-447.4970703125001	117.1509857177735	-1062.1640625	-241.0694580078126	61.85449981689455	-1039.412109375	-234.8582153320313	56.49581146240236	-1085.306518554688	-284.6697082519532	43.98602676391602	-1136.793334960938	-304.8163146972657	766.7276611328126	-866.2280883789065	-239.3356170654297	760.4899291992189	-867.5609130859377	-218.863998413086	785.868835449219	-874.700134277344	-199.304672241211	686.8327026367189	-884.5729980468752	-105.5103302001953	603.1516113281251	-890.6932373046877	-78.6256790161133	608.1335449218751	-1008.650268554688	33.97470474243165	504.5006408691407	-900.6643066406252	25.40724754333497	392.147430419922	-889.535339355469	61.41722869873048	422.0411071777345	-889.2242431640627	111.0664749145508	403.6222229003907	-915.7957763671877	155.086181640625	276.3250122070313	-905.4871826171877	162.0101165771485	315.7811584472657	-984.185729980469	145.9075317382813	207.5155029296876	-959.6172485351565	294.2806396484376	366.8306579589844	-960.5594482421877	292.0615539550782	369.9115905761719	-907.7332153320315	279.4768676757813	319.7321777343751	-864.8169555664065	-4217.054199218751	853.079284667969	-3944.490234375001	
